<svg height="512" viewBox="0 0 128 128" width="512" xmlns="http://www.w3.org/2000/svg"><g><g><path d="m85 12.933h5a5 5 0 0 1 5 5v65.75a5 5 0 0 1 -5 5h-5a0 0 0 0 1 0 0v-75.75a0 0 0 0 1 0 0z" fill="#596c76"/><path d="m85 88.678a135 135 0 0 0 -69.436-19.227h-3.814a10 10 0 0 1 -10-10v-17.291a10 10 0 0 1 10-10h3.814a135 135 0 0 0 69.436-19.227z" fill="#979fef"/><path d="m95 41.846h4.125a6 6 0 0 1 6 6v5.924a6 6 0 0 1 -6 6h-4.125a0 0 0 0 1 0 0v-17.924a0 0 0 0 1 0 0z" fill="#ffda2d"/><path d="m16.575 69.468-7.03 40.921a4 4 0 0 0 3.943 4.678h9.134a4 4 0 0 0 3.942-3.323l7.057-41.077a135.071 135.071 0 0 0 -17.046-1.199z" fill="#596c76"/><path d="m15.563 40.16h-3.813a2 2 0 0 0 -2 2v17.291a2 2 0 0 0 2 2h3.813a142.984 142.984 0 0 1 31.062 3.421v-28.133a142.984 142.984 0 0 1 -31.062 3.421z" fill="#737ee6"/><path d="m31.942 80.439-3.032 17.652h5.072a4 4 0 0 0 3.942-3.323l1.658-9.652a4 4 0 0 0 -3.942-4.677z" fill="#ffda2d"/><g fill="#f2f2fc"><path d="m126.25 52.559h-9.875a1.75 1.75 0 0 1 0-3.5h9.875a1.75 1.75 0 0 1 0 3.5z"/><path d="m111.6 41.023a1.75 1.75 0 0 1 -1.238-2.987l6.983-6.982a1.749 1.749 0 1 1 2.474 2.474l-6.982 6.983a1.742 1.742 0 0 1 -1.237.512z"/><path d="m111.6 41.023a1.75 1.75 0 0 1 -1.238-2.987l6.983-6.982a1.749 1.749 0 1 1 2.474 2.474l-6.982 6.983a1.742 1.742 0 0 1 -1.237.512z"/><path d="m118.58 71.076a1.746 1.746 0 0 1 -1.237-.512l-6.983-6.984a1.75 1.75 0 0 1 2.475-2.475l6.982 6.984a1.75 1.75 0 0 1 -1.237 2.987z"/><path d="m118.58 71.076a1.746 1.746 0 0 1 -1.237-.512l-6.983-6.984a1.75 1.75 0 0 1 2.475-2.475l6.982 6.984a1.75 1.75 0 0 1 -1.237 2.987z"/></g></g><g><path d="m85 56a1.749 1.749 0 0 0 -1.75 1.75v7.1a1.75 1.75 0 1 0 3.5 0v-7.1a1.749 1.749 0 0 0 -1.75-1.75z"/><path d="m99.125 40.1h-2.375v-22.166a6.758 6.758 0 0 0 -6.75-6.75h-5c-.037 0-.072.008-.109.011a1.746 1.746 0 0 0 -.19.019c-.058.01-.113.025-.168.04s-.106.03-.159.05a1.551 1.551 0 0 0 -.175.082c-.033.017-.067.027-.1.047a133.282 133.282 0 0 1 -68.536 18.977h-3.813a11.764 11.764 0 0 0 -11.75 11.75v17.291a11.763 11.763 0 0 0 11.75 11.749h2.75l-2.5 14.551a1.75 1.75 0 1 0 3.449.592l2.594-15.1a133.354 133.354 0 0 1 13.538.944l-6.744 39.26a2.246 2.246 0 0 1 -2.218 1.869h-9.132a2.25 2.25 0 0 1 -2.217-2.631l1.333-7.763a1.75 1.75 0 1 0 -3.449-.592l-1.333 7.763a5.75 5.75 0 0 0 5.666 6.723h9.135a5.737 5.737 0 0 0 5.667-4.776l2.1-12.2h3.6a5.735 5.735 0 0 0 5.667-4.777l1.659-9.652a5.748 5.748 0 0 0 -5.675-6.721h-1.622l1.037-6.037a133.232 133.232 0 0 1 48.961 17.478l.041.023.043.025h.012a1.7 1.7 0 0 0 .413.176l.025.008a1.711 1.711 0 0 0 .45.066h5a6.758 6.758 0 0 0 6.75-6.75v-22.158h2.375a7.759 7.759 0 0 0 7.75-7.75v-5.924a7.759 7.759 0 0 0 -7.75-7.747zm-63.485 42.09a2.249 2.249 0 0 1 2.217 2.63l-1.657 9.652a2.244 2.244 0 0 1 -2.218 1.869h-3l1.818-10.581.613-3.57zm57.61 1.494a3.254 3.254 0 0 1 -3.25 3.25h-3.25v-9.683a1.75 1.75 0 0 0 -3.5 0v8.4a136.768 136.768 0 0 0 -67.687-17.951h-3.813a8.259 8.259 0 0 1 -8.25-8.25v-17.29a8.259 8.259 0 0 1 8.25-8.25h3.813a136.767 136.767 0 0 0 67.687-17.946v29.388a1.75 1.75 0 1 0 3.5 0v-30.668h3.25a3.254 3.254 0 0 1 3.25 3.25zm10.125-29.913a4.255 4.255 0 0 1 -4.25 4.25h-2.375v-14.421h2.375a4.254 4.254 0 0 1 4.25 4.25z"/><path d="m46.245 35.03a141.484 141.484 0 0 1 -30.682 3.38h-3.813a3.755 3.755 0 0 0 -3.75 3.75v17.291a3.755 3.755 0 0 0 3.75 3.75h3.813a141.5 141.5 0 0 1 30.682 3.379 1.75 1.75 0 0 0 2.13-1.708v-28.134a1.75 1.75 0 0 0 -2.13-1.708zm-1.37 27.677a144.962 144.962 0 0 0 -29.312-3.007h-3.813a.253.253 0 0 1 -.25-.25v-17.29a.253.253 0 0 1 .25-.25h3.813a144.948 144.948 0 0 0 29.312-3.01z"/><path d="m126.25 49.059h-9.875a1.75 1.75 0 0 0 0 3.5h9.875a1.75 1.75 0 0 0 0-3.5z"/><path d="m111.6 41.023a1.742 1.742 0 0 0 1.237-.512l6.982-6.983a1.749 1.749 0 1 0 -2.474-2.474l-6.983 6.982a1.75 1.75 0 0 0 1.238 2.987z"/><path d="m112.835 61.105a1.75 1.75 0 0 0 -2.475 2.475l6.983 6.984a1.75 1.75 0 1 0 2.474-2.475z"/></g></g></svg>