<svg height="512" viewBox="0 0 60 60" width="512" xmlns="http://www.w3.org/2000/svg"><g id="002---Cutting-Ribbon" fill="none"><g id="Icons" transform="translate(1 1)"><path id="Shape" d="m46.8 43.42c-3 2.22-5.85 4-7 6.22-1.0412165 2.339659-1.6153029 4.8602039-1.69 7.42-.0238999.3467284-.2261128.6561809-.5340644.8172947-.3079516.1611137-.6774703.1507791-.9759356-.0272947l-3-1.84c-.3094011-.1786328-.6905989-.1786328-1 0l-2.91 1.73c-.306003.1815268-.685412.186793-.9963354.013829-.3109233-.1729639-.5065291-.4981059-.5136646-.853829v-.1c.0838529-4.1347923 1.0450659-8.2046088 2.82-11.94 1.4350654-2.5031309 3.3763947-4.6794633 5.7-6.39 9.68 4.74 7.63 3.73 10.1 4.95z" fill="#ef314c"/><path id="Shape" d="m19.42 29 6.52-3.58-4.51-2.33c-.2417471-.121529-.4239292-.3358338-.5049568-.5939917-.0810277-.2581578-.0539842-.5381319.0749568-.7760083 3.33-5.95-2-12.72-10-12.72-6.08 0-11 4-11 9 0 6.27 7.54 10.42 14.38 8.56.2477715-.0695449.5128162-.0408915.74.08zm-8.42-6c-3.79 0-7-2.29-7-5s3.21-5 7-5 7 2.29 7 5-3.21 5-7 5z" fill="#02a9f4"/><path id="Shape" d="m58 15.5-6.07 3.65c-1.5626347-1.6811113-3.2802291-3.21121-5.13-4.57l.15-.05c6.17-2.11 9.72-2 10.64.06z" fill="#283593"/><path id="Shape" d="m55.2 16.35-3.77 2.27c-1.4285323-1.4607049-2.9773178-2.7987485-4.63-4l.15-.05c4.45-1.18 7.07-.83 7.84.91z" fill="#3f51b5"/><path id="Shape" d="m21.43 34.91 21.12-10.91c-2.06-1.74-4.53-3.41-5.87-4.46-18 9.86-6.48 3.54-21.56 11.82-.2271838.1208915-.4922285.1495449-.74.08-6.79-1.86-14.38 2.26-14.38 8.56 0 5 4.92 9 11 9 8 0 13.3-6.79 10-12.72-.128941-.2378764-.1559845-.5178505-.0749568-.7760083.0810276-.2581579.2632097-.4724627.5049568-.5939917zm-10.43 10.09c-3.79 0-7-2.29-7-5s3.21-5 7-5c2.1738071-.0607849 4.2786884.7660038 5.83 2.29 3.17 3.35-.5 7.71-5.83 7.71z" fill="#3f51b5"/><path id="Shape" d="m58 42.5-.41.91c-1 2.18-5.14 2.17-11.57-.24-3.35-1.27-1.7-.51-20.08-10.59l6.93-3.58z" fill="#0377bc"/><path id="Shape" d="m55 41.5-.41.91c-.81 1.82-3.85 2.12-8.57.76-3.35-1.27-1.7-.51-20.08-10.59l6.35-3.28z" fill="#02a9f4"/><path id="Shape" d="m42.56 34c1.8-1.53 3.54-3.34 3.45-4.67 0-.23 0-.45 0-.68.18-2.7-6.75-7.08-9.34-9.13-2.3117017-1.7107664-4.2425448-3.8833907-5.67-6.38-1.814027-3.7469352-2.8061919-7.83833672-2.91-12-.0225834-.36995738.161312-.72206071.4778363-.91490996.3165243-.19284925.7137528-.19480815 1.0321637-.00509004l2.88 1.78c.3094011.17863279.6905989.17863279 1 0l3-1.84c.2984653-.17807382.667984-.18840841.9759356-.02729467s.5101645.47056624.5340644.81729467c.0746971 2.55979613.6487835 5.08034105 1.69 7.42 1.93 3.51 7.69 5.75 12.18 10.79 2.44 2.63 4.3 5.91 4.14 9.84.15 3.93-1.71 7.21-4.08 9.85z" fill="#ef314c"/><path id="Shape" d="m51.93 19.15c-4.49-5-10.25-7.28-12.18-10.79-1.0412165-2.33965895-1.6153029-4.86020387-1.69-7.42-.0238999-.34672843-.2261128-.65618093-.5340644-.81729467s-.6774703-.15077915-.9759356.02729467l-1.48.9c.0814303 2.52245635.651994 5.00508774 1.68 7.31 1.93 3.51 7.69 5.75 12.18 10.79 2.37 2.64 4.23 5.92 4.07 9.85.0354977 3.2099568-1.090318 6.3245951-3.17 8.77l2.09 1.08c2.38-2.64 4.24-5.92 4.08-9.85.16-3.93-1.7-7.21-4.07-9.85z" fill="#bb193b"/></g><g id="Layer_10" fill="#000" transform="translate(0 -1)"><path id="Shape" d="m12 14c-4.34 0-8 2.75-8 6s3.66 6 8 6 8-2.75 8-6-3.66-6-8-6zm0 10c-3.2 0-6-1.87-6-4s2.8-4 6-4 6 1.87 6 4-2.8 4-6 4z"/><circle id="Oval" cx="27" cy="31" r="1"/><path id="Shape" d="m0 42c0 5.51 5.38 10 12 10 8.82 0 14.54-7.65 10.89-14.2l4-2.09 9 4.92c-4.27 3.64-7.33 8.37-7.84 18.11-.0442198.7354491.3194938 1.4356515.9466172 1.8223775.6271233.3867261 1.4160836.3973393 2.0533828.0276225l2.95-1.72 3 1.83c.5956919.3464731 1.3277943.3618681 1.9375249.0407434.6097305-.3211247 1.0111915-.9335299 1.0624751-1.6207434.0638812-2.4131372.597142-4.7907333 1.57-7 1.07-2 3.88-3.8 6.31-5.57 2.68.91 6.94 2.08 9.57 1.07 1.6-.62 1.91-1.62 2.4-2.71.2144604-.4788442.0223717-1.0420133-.44-1.29l-5.21-2.8c2.67-3.15 3.94-6.46 3.8-9.82.0445159-3.5414932-1.2277228-6.9733304-3.57-9.63l5.08-3.05c.4330547-.2633314.6006233-.8090037.39-1.27l-.41-.9c-1.18-2.68-5-2.91-11.53-.72-2.51-1.82-5.27-3.63-6.34-5.59-.9726144-2.20934678-1.5058643-4.58689442-1.57-7-.052035-.6975801-.4647491-1.31727981-1.0883592-1.6341964s-1.3674792-.28498868-1.9616408.0841964l-3 1.85-2.92-1.73c-.6341277-.36732126-1.4183676-.35841414-2.0439889.02321488-.6256214.38162903-.9924248 1.07485832-.9560111 1.80678512.51 9.69 3.57 14.49 7.83 18.12l-9 4.93-4-2.08c3.66-6.61-2.16-14.21-10.91-14.21-6.62 0-12 4.49-12 10 0 6.93 8.19 11.57 15.64 9.52l2.7 1.48-2.7 1.48c-7.5-2.06-15.64 2.62-15.64 9.52zm43.42-14.81c2.46 2.19 2.58 3.15 2.58 3.43v.79c0 .29-.14 1.24-2.72 3.51l-7.28-3.92zm-3.55 24c-1.35 2.49-1.71 6.31-1.8 7.83l-3-1.83c-.633865-.3808262-1.426135-.3808262-2.06 0l-2.91 1.71c.0952733-3.9921603 1.0467221-7.9173126 2.79-11.51 1.2517208-2.2006002 2.9273659-4.1311609 4.93-5.68 6.35 3.49 5.5 3.09 7.91 4.05-2.09 1.44-4.64 3.24-5.86 5.4zm16.92-5.41c-2.74 1-8.76-1.3-8.86-1.32-3.67-1.32-2.75-1-18.86-9.82l4.79-2.48 23.82 12.84c-.1817924.3610535-.5033574.6320353-.89.75zm.93-28.65-4.61 2.77c-1.0048216-1.0327901-2.0735974-2.0013682-3.2-2.9 2.09-.68 6.91-1.91 7.81.1zm-24.87-2.47c-1.7428227-3.5999538-2.6941708-7.53151092-2.79-11.53l2.94 1.74c.6188022.35726559 1.3811978.35726559 2 0l3-1.85c.1 1.53.46 5.35 1.81 7.84 1.12 2 3.27 3.6 5.56 5.25 5.33 3.8 10.89 8.33 10.63 14.89.12 3-1 5.92-3.55 8.81l-7.3-3.92c3.18-2.89 2.85-4.07 2.85-5.16.18-2.73-4.58-6.2-6.84-7.84-3.31-2.41-6.32-4.56-8.31-8.23zm-16.24 13.11c-.4558178-.2477786-.9900833-.3087351-1.49-.17-6.21 1.68-13.12-2.02-13.12-7.6 0-4.41 4.49-8 10-8s10 3.59 10 8c0 2.82-1.49 3.25-1 4.78.1521058.5264987.5135958.9675164 1 1.22l2.84 1.47-4.39 2.41zm21-5.05c1.65 1.26 2.72 2 4.16 3.09l-19.77 10.19c-.4843012.2502012-.8454922.6872423-1 1.21-.45 1.53 1 1.94 1 4.77 0 4.41-4.49 8-10 8s-10-3.57-10-7.98c0-5.66 7-9.27 13.11-7.6.498633.141786 1.032839.0844216 1.49-.16 39-21.36 9.4-5.16 20.98-11.52z"/><path id="Shape" d="m4 42c0 3.25 3.66 6 8 6s8-2.75 8-6c0-2.45-2-4.36-4.22-5.28-5.55-2.25-11.78 1.03-11.78 5.28zm13.1-2c2.62 2.76-.88 6-5.1 6-3.2 0-6-1.87-6-4s2.8-4 6-4c1.9011066-.0538389 3.7422845.6681916 5.1 2z"/></g></g></svg>