<svg id="Capa_1" enable-background="new 0 0 512 512" height="512" viewBox="0 0 512 512" width="512" xmlns="http://www.w3.org/2000/svg"><path d="m512 211v30l-261 40-251-40v-30l253-42z" fill="#f9d72e"/><path d="m256 280.234 256-39.234v-30l-256-41.513z" fill="#f4bd06"/><g><path d="m166 0h-60c-8.291 0-15 6.709-15 15v61h90v-61c0-8.291-6.709-15-15-15z" fill="#384949"/><path d="m421 376v121c0 8.401-6.599 15-15 15h-300c-8.401 0-15-6.599-15-15v-121z" fill="#f0f7ff"/><path d="m421 376v121c0 8.401-6.599 15-15 15h-150v-136z" fill="#dfe7f4"/><path d="m121 376h270v106h-270z" fill="#9edd2c"/><path d="m256 376h135v106h-135z" fill="#68c365"/><path d="m512 106v105h-512v-105c0-24.9 20.1-45 45-45h422c24.9 0 45 20.1 45 45z" fill="#4a696f"/><path d="m256 391h211c24.9 0 45-20.1 45-45v-105h-256z" fill="#3b4949"/><path d="m467 61h-211v150h256v-105c0-24.9-20.1-45-45-45z" fill="#3b4949"/><path d="m0 241h512v105c0 24.9-20.1 45-45 45h-422c-24.9 0-45-20.1-45-45z" fill="#4a696f"/><path d="m436 151h-60c-8.291 0-15-6.709-15-15s6.709-15 15-15h60c8.291 0 15 6.709 15 15s-6.709 15-15 15z" fill="#d1d9e5"/><circle cx="256" cy="226" fill="#f0f7ff" r="15"/><path d="m271 226c0 8.401-6.599 15-15 15v-30c8.401 0 15 6.599 15 15z" fill="#dfe7f4"/></g><path d="m256 121c-57.9 0-105 47.1-105 105s47.1 105 105 105 105-47.1 105-105-47.1-105-105-105z" fill="#3b4949"/><path d="m256 331v-210c57.9 0 105 47.1 105 105s-47.1 105-105 105z" fill="#2b3939"/><circle cx="256" cy="226" fill="#f1f7ff" r="45"/><path d="m301 226c0 24.901-20.099 45-45 45v-90c24.901 0 45 20.099 45 45z" fill="#e0e7f5"/></svg>