<?xml version="1.0" standalone="no"?>
<!DOCTYPE svg PUBLIC "-//W3C//DTD SVG 20010904//EN"
 "http://www.w3.org/TR/2001/REC-SVG-20010904/DTD/svg10.dtd">
<svg version="1.0" xmlns="http://www.w3.org/2000/svg"
 width="2083.000000pt" height="2083.000000pt" viewBox="0 0 2083.000000 2083.000000"
 preserveAspectRatio="xMidYMid meet">
<metadata>
Created by potrace 1.11, written by Peter Selinger 2001-2013
</metadata>
<g transform="translate(0.000000,2083.000000) scale(0.100000,-0.100000)"
fill="#000000" stroke="none">
<path d="M3330 13020 l0 -6230 1275 0 1275 0 0 6230 0 6230 -1275 0 -1275 0 0
-6230z"/>
<path d="M12989 13830 c-788 -50 -1503 -251 -2085 -586 -127 -73 -364 -233
-371 -250 -2 -7 16 -75 41 -151 113 -347 176 -692 206 -1133 6 -90 10 -1038
10 -2492 l0 -2347 -66 -3 -65 -3 103 -65 c140 -88 434 -235 597 -299 426 -168
895 -271 1410 -311 174 -13 678 -13 852 0 486 38 965 139 1358 287 592 223
1019 495 1406 895 527 544 824 1212 932 2098 22 182 26 844 5 1035 -120 1116
-568 1959 -1354 2548 -566 423 -1273 679 -2109 762 -185 18 -680 27 -870 15z
m562 -965 c552 -73 975 -337 1285 -802 78 -118 199 -358 253 -504 180 -487
264 -1108 240 -1766 -29 -796 -199 -1428 -510 -1893 -300 -450 -705 -699
-1249 -771 -52 -7 -176 -12 -275 -12 -976 3 -1634 502 -1948 1478 -280 870
-259 2116 49 2953 46 126 157 355 222 460 305 492 749 778 1327 856 135 19
472 19 606 1z"/>
</g>
</svg>
